<svg width="59" height="63" viewBox="0 0 59 63" fill="none" xmlns="http://www.w3.org/2000/svg">
<path d="M46.7936 29.4195C46.9033 29.584 47.1775 29.4743 47.1775 29.3098C47.5065 26.3484 48.384 18.1772 54.1971 16.4223C56.0616 15.8739 57.9262 17.1901 58.1456 18.8901C58.5294 21.6321 55.4035 28.7065 55.6777 35.1777C55.7326 36.2196 57.4875 47.2425 52.826 53.7685C48.1646 60.2945 37.0869 66.9302 26.064 56.8396C20.3606 51.6297 20.3606 49.5458 13.2862 42.2521C11.8603 40.8262 6.15696 34.5744 4.62143 32.655C2.59234 30.0775 5.82792 26.6774 8.29573 28.4323C9.44738 29.2549 19.6477 37.81 20.0316 38.1939C20.7993 38.852 21.7316 37.9197 21.1832 37.2616C14.9314 29.0356 8.89897 21.6321 7.25376 18.7804C5.60856 15.9288 9.55706 12.8577 11.8603 15.3255C13.4507 16.9707 25.2414 30.7356 25.7898 31.3389C26.3382 31.9421 27.2705 31.1743 26.9414 30.4066C26.5575 29.6937 17.0153 13.0771 15.3153 9.29308C13.8346 5.94783 18.7702 2.82193 21.0735 6.27687C22.9381 9.01888 33.3577 26.3484 33.7416 26.9516C34.2352 27.8291 35.332 27.2807 34.8933 26.2936C34.5642 25.5806 28.1479 8.03176 27.6544 6.22203C26.7769 3.04129 31.3287 0.408963 33.4674 4.02842C36.374 9.01888 42.1322 24.2645 46.7936 29.4195Z" fill="white"/>
<mask id="mask0_631_53" style="mask-type:luminance" maskUnits="userSpaceOnUse" x="3" y="2" width="56" height="61">
<path d="M46.7936 29.4195C46.9033 29.584 47.1775 29.4743 47.1775 29.3098C47.5065 26.3484 48.384 18.1772 54.1971 16.4223C56.0616 15.8739 57.9262 17.1901 58.1456 18.8901C58.5294 21.6321 55.4035 28.7065 55.6777 35.1777C55.7326 36.2196 57.4875 47.2425 52.826 53.7685C48.1646 60.2945 37.0869 66.9302 26.064 56.8396C20.3606 51.6297 20.3606 49.5458 13.2862 42.2521C11.8603 40.8262 6.15696 34.5744 4.62143 32.655C2.59234 30.0775 5.82792 26.6774 8.29573 28.4323C9.44738 29.2549 19.6477 37.81 20.0316 38.1939C20.7993 38.852 21.7316 37.9197 21.1832 37.2616C14.9314 29.0356 8.89897 21.6321 7.25376 18.7804C5.60856 15.9288 9.55706 12.8577 11.8603 15.3255C13.4507 16.9707 25.2414 30.7356 25.7898 31.3389C26.3382 31.9421 27.2705 31.1743 26.9414 30.4066C26.5575 29.6937 17.0153 13.0771 15.3153 9.29308C13.8346 5.94783 18.7702 2.82193 21.0735 6.27687C22.9381 9.01888 33.3577 26.3484 33.7416 26.9516C34.2352 27.8291 35.332 27.2807 34.8933 26.2936C34.5642 25.5806 28.1479 8.03176 27.6544 6.22203C26.7769 3.04129 31.3287 0.408963 33.4674 4.02842C36.374 9.01888 42.1322 24.2645 46.7936 29.4195Z" fill="white"/>
</mask>
<g mask="url(#mask0_631_53)">
<path d="M45.6426 29.529C38.8424 35.0678 35.8262 42.9648 41.4199 51.1909C41.9134 51.9038 42.9554 51.2457 42.5167 50.4231C40.2134 46.3101 38.5133 38.9067 46.4652 31.1742C47.3975 31.6129 48.4943 30.6806 48.5491 29.858C49.1524 24.703 49.7556 20.4255 53.5944 18.0125C55.0751 17.0802 56.9945 17.7383 57.1042 19.9868C57.1042 19.9868 58.3107 20.0965 58.8043 20.1513C59.0785 18.9996 59.6269 16.9157 59.6269 16.8609C59.6269 16.806 53.1557 14.3931 53.1557 14.3931L47.5072 19.9868L45.6426 29.529ZM34.6745 27.2805C35.4423 26.8966 36.1004 26.2934 35.7713 25.4708C35.4423 24.5934 29.355 8.0316 28.9711 6.77028C28.2034 4.46699 30.1228 2.65726 31.8228 3.42502C32.7551 3.86374 33.1938 2.38306 32.7003 2.1637C32.2067 1.94434 31.0551 0.902371 28.7518 2.05402C24.6388 4.13795 27.0517 8.74452 28.1485 11.4317C29.2453 14.1189 34.6745 27.2805 34.6745 27.2805ZM26.7227 31.3935C27.655 30.7355 28.3679 30.1871 27.5453 28.8709C26.9969 27.9934 17.7289 11.1575 16.7966 9.51229C15.4256 7.15416 18.2773 5.07023 19.8677 6.55091C20.5806 7.209 21.6774 5.78315 21.129 5.23475C20.5806 4.68635 18.6612 3.09598 16.2482 4.68635C13.8352 6.27671 13.7804 8.19612 14.1094 9.01873C14.3836 9.84133 26.7227 31.3935 26.7227 31.3935ZM21.2387 38.1389C21.8967 37.1518 22.3355 36.6582 21.4032 35.3969C20.4709 34.1356 9.39315 19.6577 8.78991 18.8351C7.25438 16.806 9.50284 15.0512 10.5996 15.6544C11.6416 16.2576 12.2449 14.5576 11.3674 14.1189C10.49 13.6801 9.06411 13.1866 7.74795 14.1189C6.43178 15.0512 5.66402 16.9706 5.88338 18.0674C6.0479 19.1642 21.2387 38.1389 21.2387 38.1389Z" fill="#C1C1C1"/>
<path d="M46.5199 58.8137C37.6358 63.0364 31.0001 59.746 26.7225 55.5782C21.8418 50.8071 19.5385 46.4198 16.3029 43.4585C15.2061 42.4165 6.54131 33.2034 5.49935 31.613C4.67674 30.2968 6.32195 28.0484 8.13168 29.3097C9.28333 30.0775 9.83173 28.4323 9.06397 27.9935C8.2962 27.5548 6.59615 26.6225 4.78643 27.9935C2.9767 29.3097 2.92186 31.6678 3.36058 32.4356C3.7993 33.2034 30.4517 63.8042 30.4517 63.8042L41.3101 63.53L47.1231 59.9654L46.5199 58.8137Z" fill="#C1C1C1"/>
</g>
<mask id="mask1_631_53" style="mask-type:luminance" maskUnits="userSpaceOnUse" x="3" y="2" width="56" height="61">
<path d="M46.7936 29.4195C46.9033 29.584 47.1775 29.4743 47.1775 29.3098C47.5065 26.3484 48.384 18.1772 54.1971 16.4223C56.0616 15.8739 57.9262 17.1901 58.1456 18.8901C58.5294 21.6321 55.4035 28.7065 55.6777 35.1777C55.7326 36.2196 57.4875 47.2425 52.826 53.7685C48.1646 60.2945 37.0869 66.9302 26.064 56.8396C20.3606 51.6297 20.3606 49.5458 13.2862 42.2521C11.8603 40.8262 6.15696 34.5744 4.62143 32.655C2.59234 30.0775 5.82792 26.6774 8.29573 28.4323C9.44738 29.2549 19.6477 37.81 20.0316 38.1939C20.7993 38.852 21.7316 37.9197 21.1832 37.2616C14.9314 29.0356 8.89897 21.6321 7.25376 18.7804C5.60856 15.9288 9.55706 12.8577 11.8603 15.3255C13.4507 16.9707 25.2414 30.7356 25.7898 31.3389C26.3382 31.9421 27.2705 31.1743 26.9414 30.4066C26.5575 29.6937 17.0153 13.0771 15.3153 9.29308C13.8346 5.94783 18.7702 2.82193 21.0735 6.27687C22.9381 9.01888 33.3577 26.3484 33.7416 26.9516C34.2352 27.8291 35.332 27.2807 34.8933 26.2936C34.5642 25.5806 28.1479 8.03176 27.6544 6.22203C26.7769 3.04129 31.3287 0.408963 33.4674 4.02842C36.374 9.01888 42.1322 24.2645 46.7936 29.4195Z" fill="white"/>
</mask>
<g mask="url(#mask1_631_53)">
<path d="M56.7756 16.2578C57.0498 16.9707 57.3788 18.2321 57.0498 19.9321C55.7885 26.2936 53.7045 30.0227 54.3626 36.8778C55.5691 50.0394 50.9625 60.0203 35.1137 61.9946C33.5233 62.2139 33.962 63.4204 34.7846 63.3108C35.1685 63.2559 46.4656 61.2268 46.4656 61.2268C46.4656 61.2268 56.9401 52.2879 56.9401 52.1782C56.9401 52.0685 59.5724 17.9579 59.5724 17.9579L56.7756 16.2578ZM29.3554 2.27357C30.0684 2.38325 31.6039 2.98649 32.7007 5.12526C33.7975 7.26403 39.1718 19.6031 39.8848 20.9192C40.5977 22.2354 43.5042 28.7614 45.8624 30.7357C46.6301 31.3389 47.014 30.2969 47.014 30.2969L47.0688 28.5969L34.3459 -0.358765L30.1232 -0.194244L29.3554 2.27357ZM34.6749 27.2807C33.633 27.7743 32.8652 28.213 32.0974 27.0065C31.6039 26.1291 26.2844 17.0256 19.5939 6.38658C19.0455 5.56398 17.7841 4.85106 16.797 5.23494C15.8099 5.67366 15.5905 4.41234 16.0841 4.13813C16.5776 3.86393 19.6487 2.16389 21.7326 5.67366C23.8166 9.18344 34.6749 27.2807 34.6749 27.2807ZM26.7231 31.3937C25.9005 31.997 25.0779 32.7647 24.0359 31.5034C23.0488 30.2969 11.8065 16.9159 11.1485 16.0933C10.4904 15.2707 9.11936 14.5578 8.0774 15.2159C7.36447 15.6546 6.70639 14.3384 7.14511 14.0094C7.58383 13.6803 10.0516 11.4867 11.6969 13.3513C13.3421 15.2159 26.7231 31.3937 26.7231 31.3937ZM21.2391 38.1391C20.5261 38.9068 19.7584 39.3456 18.7164 38.5778C17.6744 37.81 8.3516 29.9679 7.74836 29.4195C7.14511 28.8711 5.39022 28.0485 4.07406 29.3646C3.58049 29.8582 2.70305 29.0356 3.19661 28.542C3.69017 27.9936 6.37735 25.2516 8.51612 27.0614C10.6549 28.8711 21.2391 38.1391 21.2391 38.1391Z" fill="#ACACAC"/>
</g>
<path d="M1.44002 41.1003C3.14007 46.1456 5.71757 49.2715 9.94027 52.1232C10.708 52.6716 10.2693 53.7684 9.39187 53.3845C5.44337 51.7941 1.05614 48.2844 0.0141766 41.3196C-0.150344 40.3874 1.16582 40.2228 1.44002 41.1003ZM4.73044 38.0841C6.43049 43.1294 9.00798 46.2553 13.2307 49.107C13.9984 49.6554 13.5597 50.7522 12.6823 50.3683C8.73378 48.7779 4.34656 45.2681 3.30459 38.3034C3.19491 37.3711 4.45624 37.2066 4.73044 38.0841ZM46.9026 15.4899C45.5865 10.3349 43.1735 7.0445 39.1701 3.97344C38.4024 3.42504 38.9508 2.32824 39.8282 2.71212C43.667 4.52184 47.8349 8.36066 48.3833 15.3802C48.4382 16.3125 47.122 16.4222 46.9026 15.4899ZM50.4672 12.8576C49.1511 7.70258 46.7381 4.41216 42.7348 1.34111C41.967 0.792709 42.5154 -0.304096 43.3928 0.0797853C47.2317 1.88951 51.3995 5.72833 51.9479 12.7479C52.0028 13.6253 50.7414 13.735 50.4672 12.8576Z" fill="#B0BEC5"/>
</svg>
